<?xml version="1.0" encoding="UTF-8"?>
<svg width="122px" height="36px" viewBox="0 0 122 36" version="1.1" xmlns="http://www.w3.org/2000/svg" xmlns:xlink="http://www.w3.org/1999/xlink">
    <!-- Generator: Sketch 48.2 (47327) - http://www.bohemiancoding.com/sketch -->
    <title>50 Cloud</title>
    <desc>Created with Sketch.</desc>
    <defs></defs>
    <g id="Landing-Page" stroke="none" stroke-width="1" fill="none" fill-rule="evenodd">
        <g id="50-Cloud" fill="#86837C">
            <path d="M1.23999996,13.788 L2.24799996,0.936 L13.84,0.936 L13.84,2.484 L3.79599996,2.484 L2.89599996,12.528 C4.11999996,11.448 5.88399996,10.476 8.36799996,10.476 C11.536,10.476 15.424,12.024 15.424,18.468 C15.424,23.508 12.616,27.432 7.17999996,27.432 C3.25599996,27.432 0.483999962,25.524 -0.164000038,21.708 L1.56399996,21.276 C2.06799996,23.436 3.21999996,25.812 7.21599996,25.812 C10.168,25.812 13.516,23.94 13.516,18.432 C13.516,13.86 11.176,12.06 8.18799996,12.06 C5.81199996,12.06 4.04799996,12.96 2.53599996,14.4 L1.23999996,13.788 Z M24.758,27.432 C17.702,27.432 16.73,21.024 16.73,14.112 C16.73,7.164 18.062,0.468 25.118,0.468 C32.102,0.468 32.93,7.164 32.93,13.572 C32.93,20.916 31.742,27.432 24.758,27.432 Z M24.866,25.848 C30.338,25.848 31.166,20.304 31.166,13.824 C31.166,7.488 30.518,2.052 25.046,2.052 C19.502,2.052 18.494,7.524 18.494,14.256 C18.494,20.196 19.322,25.848 24.866,25.848 Z M51.994,27.432 C44.038,27.432 40.87,22.032 40.87,14.472 C40.87,5.256 45.766,0.468 52.678,0.468 C57.898,0.468 61.462,3.132 61.966,8.748 L60.31,8.892 C59.662,4.464 57.574,1.944 52.642,1.944 C46.63,1.944 42.67,6.192 42.67,14.184 C42.67,22.572 46.306,25.956 52.102,25.956 C56.602,25.956 59.122,24.264 60.202,19.836 L61.714,20.196 C60.67,25.56 56.71,27.432 51.994,27.432 Z M66.836,-0.18 L66.836,27 L65.072,27 L65.072,-0.18 L66.836,-0.18 Z M77.826,27.432 C71.742,27.432 69.762,23.292 69.762,17.928 C69.762,11.988 72.822,8.352 78.294,8.352 C83.73,8.352 86.034,11.988 86.034,17.46 C86.034,23.472 83.694,27.432 77.826,27.432 Z M77.97,25.812 C81.75,25.812 84.162,23.544 84.162,17.676 C84.162,11.916 81.93,9.972 78.15,9.972 C74.262,9.972 71.526,12.384 71.526,17.784 C71.526,23.148 73.686,25.812 77.97,25.812 Z M88.924,20.988 L88.924,8.712 L90.688,8.712 L90.688,20.952 C90.688,23.976 91.624,25.74 94.684,25.74 C97.312,25.74 100.156,24.012 101.344,22.896 L101.344,8.712 L103.108,8.712 L103.108,27 L101.56,27 L101.452,24.66 C99.328,26.208 97.204,27.36 94.36,27.36 C90.4,27.36 88.924,25.128 88.924,20.988 Z M121.586,-0.18 L121.586,27 L120.074,27 L119.894,24.912 C118.13,26.316 116.186,27.432 113.378,27.432 C109.31,27.432 106.43,24.768 106.43,18.036 C106.43,10.98 110.03,8.352 114.278,8.352 C116.438,8.352 118.382,9.18 119.786,10.152 L119.786,-0.18 L121.586,-0.18 Z M119.822,23.112 L119.822,11.916 C118.886,11.196 116.69,9.936 114.242,9.936 C109.814,9.936 108.302,13.176 108.302,18.072 C108.302,23.292 110.03,25.884 113.738,25.884 C116.222,25.884 118.454,24.588 119.822,23.112 Z"></path>
        </g>
    </g>
</svg>