<?xml version="1.0" encoding="UTF-8"?>
<svg width="134px" height="36px" viewBox="0 0 134 36" version="1.1" xmlns="http://www.w3.org/2000/svg" xmlns:xlink="http://www.w3.org/1999/xlink">
    <!-- Generator: Sketch 48.2 (47327) - http://www.bohemiancoding.com/sketch -->
    <title>Financials</title>
    <desc>Created with Sketch.</desc>
    <defs></defs>
    <g id="Landing-Page" stroke="none" stroke-width="1" fill="none" fill-rule="evenodd">
        <g id="Financials" fill="#86837C">
            <path d="M2.26,15.012 L2.26,27 L0.532,27 L0.532,0.936 L14.896,0.936 L14.896,2.448 L2.26,2.448 L2.26,13.428 L13.96,13.428 L13.96,15.012 L2.26,15.012 Z M18.758,8.712 L18.758,27 L16.994,27 L16.994,8.712 L18.758,8.712 Z M19.622,2.628 C19.622,3.6 19.01,4.14 17.966,4.14 C16.922,4.14 16.31,3.6 16.31,2.628 C16.31,1.62 16.922,1.08 17.966,1.08 C19.01,1.08 19.622,1.62 19.622,2.628 Z M37.164,14.688 L37.164,27 L35.4,27 L35.4,14.76 C35.4,11.736 34.428,9.972 31.332,9.972 C28.704,9.972 25.824,11.7 24.636,12.816 L24.636,27 L22.872,27 L22.872,8.712 L24.42,8.712 L24.528,11.088 C26.652,9.576 29.1,8.352 31.656,8.352 C35.508,8.352 37.164,10.584 37.164,14.688 Z M53.662,14.472 L53.662,24.408 C53.662,25.416 53.842,25.92 54.778,25.92 C55.102,25.92 55.426,25.848 55.894,25.704 L56.038,26.856 C55.318,27.216 54.85,27.288 54.094,27.288 C52.51,27.288 51.934,26.1 52.006,24.984 C50.602,26.388 48.406,27.432 45.814,27.432 C41.134,27.432 40.414,24.192 40.414,22.464 C40.414,17.244 45.13,16.344 49.378,16.344 C50.242,16.344 51.07,16.38 51.862,16.416 L51.862,14.796 C51.862,11.196 50.962,9.828 47.506,9.828 C44.446,9.828 43.258,10.98 42.862,13.248 L41.17,12.96 C41.746,9.576 43.978,8.352 47.65,8.352 C51.934,8.352 53.662,9.936 53.662,14.472 Z M51.898,23.328 L51.898,17.928 C51.07,17.856 50.206,17.82 49.09,17.82 C45.418,17.82 42.286,18.576 42.286,22.284 C42.286,24.264 43.042,25.92 46.066,25.92 C48.37,25.92 50.638,24.84 51.898,23.328 Z M72.248,14.688 L72.248,27 L70.484,27 L70.484,14.76 C70.484,11.736 69.512,9.972 66.416,9.972 C63.788,9.972 60.908,11.7 59.72,12.816 L59.72,27 L57.956,27 L57.956,8.712 L59.504,8.712 L59.612,11.088 C61.736,9.576 64.184,8.352 66.74,8.352 C70.592,8.352 72.248,10.584 72.248,14.688 Z M83.166,27.432 C77.154,27.432 75.066,23.472 75.066,17.928 C75.066,11.484 78.234,8.352 83.562,8.352 C87.018,8.352 89.862,10.332 90.042,14.292 L88.134,14.508 C87.81,11.376 86.298,9.9 83.346,9.9 C80.286,9.9 76.902,11.628 76.902,17.676 C76.902,24.192 80.07,25.776 83.13,25.776 C85.938,25.776 87.882,24.48 88.386,21.6 L90.186,21.96 C89.502,25.884 86.37,27.432 83.166,27.432 Z M94.6960001,8.712 L94.6960001,27 L92.9320001,27 L92.9320001,8.712 L94.6960001,8.712 Z M95.5600001,2.628 C95.5600001,3.6 94.9480001,4.14 93.9040001,4.14 C92.8600001,4.14 92.2480001,3.6 92.2480001,2.628 C92.2480001,1.62 92.8600001,1.08 93.9040001,1.08 C94.9480001,1.08 95.5600001,1.62 95.5600001,2.628 Z M111.302,14.472 L111.302,24.408 C111.302,25.416 111.482,25.92 112.418,25.92 C112.742,25.92 113.066,25.848 113.534,25.704 L113.678,26.856 C112.958,27.216 112.49,27.288 111.734,27.288 C110.15,27.288 109.574,26.1 109.646,24.984 C108.242,26.388 106.046,27.432 103.454,27.432 C98.7740001,27.432 98.0540001,24.192 98.0540001,22.464 C98.0540001,17.244 102.77,16.344 107.018,16.344 C107.882,16.344 108.71,16.38 109.502,16.416 L109.502,14.796 C109.502,11.196 108.602,9.828 105.146,9.828 C102.086,9.828 100.898,10.98 100.502,13.248 L98.8100001,12.96 C99.3860001,9.576 101.618,8.352 105.29,8.352 C109.574,8.352 111.302,9.936 111.302,14.472 Z M109.538,23.328 L109.538,17.928 C108.71,17.856 107.846,17.82 106.73,17.82 C103.058,17.82 99.9260001,18.576 99.9260001,22.284 C99.9260001,24.264 100.682,25.92 103.706,25.92 C106.01,25.92 108.278,24.84 109.538,23.328 Z M117.468,-0.18 L117.468,27 L115.704,27 L115.704,-0.18 L117.468,-0.18 Z M126.91,8.352 C131.338,8.352 132.67,10.548 132.958,13.824 L131.266,14.04 C130.978,11.448 130.078,9.864 126.802,9.864 C123.418,9.864 122.482,11.556 122.482,13.212 C122.482,15.84 124.642,16.38 127.378,16.956 C130.294,17.568 133.462,18.252 133.462,22.14 C133.462,25.2 131.374,27.432 126.982,27.432 C123.13,27.432 120.682,25.956 120.106,21.816 L121.798,21.492 C122.266,23.76 123.166,25.848 127.054,25.848 C129.61,25.848 131.626,24.876 131.626,22.212 C131.626,19.692 129.682,19.08 127.09,18.576 C124.066,18 120.682,17.352 120.682,13.356 C120.682,10.008 123.634,8.352 126.91,8.352 Z"></path>
        </g>
    </g>
</svg>