<?xml version="1.0" encoding="UTF-8"?>
<svg width="161px" height="36px" viewBox="0 0 161 36" version="1.1" xmlns="http://www.w3.org/2000/svg" xmlns:xlink="http://www.w3.org/1999/xlink">
    <!-- Generator: Sketch 48.2 (47327) - http://www.bohemiancoding.com/sketch -->
    <title>Accounting</title>
    <desc>Created with Sketch.</desc>
    <defs></defs>
    <g id="Landing-Page" stroke="none" stroke-width="1" fill="none" fill-rule="evenodd">
        <g id="Accounting" fill="#86837C">
            <path d="M9.688,0.936 L12.208,0.936 L21.172,27 L19.228,27 L16.204,18.072 L5.584,18.072 L2.56,27 L0.76,27 L9.688,0.936 Z M15.7,16.56 L10.876,2.052 L6.088,16.56 L15.7,16.56 Z M29.822,27.432 C23.81,27.432 21.722,23.472 21.722,17.928 C21.722,11.484 24.89,8.352 30.218,8.352 C33.674,8.352 36.518,10.332 36.698,14.292 L34.79,14.508 C34.466,11.376 32.954,9.9 30.002,9.9 C26.942,9.9 23.558,11.628 23.558,17.676 C23.558,24.192 26.726,25.776 29.786,25.776 C32.594,25.776 34.538,24.48 35.042,21.6 L36.842,21.96 C36.158,25.884 33.026,27.432 29.822,27.432 Z M46.392,27.432 C40.38,27.432 38.292,23.472 38.292,17.928 C38.292,11.484 41.46,8.352 46.788,8.352 C50.244,8.352 53.088,10.332 53.268,14.292 L51.36,14.508 C51.036,11.376 49.524,9.9 46.572,9.9 C43.512,9.9 40.128,11.628 40.128,17.676 C40.128,24.192 43.296,25.776 46.356,25.776 C49.164,25.776 51.108,24.48 51.612,21.6 L53.412,21.96 C52.728,25.884 49.596,27.432 46.392,27.432 Z M62.926,27.432 C56.842,27.432 54.862,23.292 54.862,17.928 C54.862,11.988 57.922,8.352 63.394,8.352 C68.83,8.352 71.134,11.988 71.134,17.46 C71.134,23.472 68.794,27.432 62.926,27.432 Z M63.07,25.812 C66.85,25.812 69.262,23.544 69.262,17.676 C69.262,11.916 67.03,9.972 63.25,9.972 C59.362,9.972 56.626,12.384 56.626,17.784 C56.626,23.148 58.786,25.812 63.07,25.812 Z M74.024,20.988 L74.024,8.712 L75.788,8.712 L75.788,20.952 C75.788,23.976 76.724,25.74 79.784,25.74 C82.412,25.74 85.256,24.012 86.444,22.896 L86.444,8.712 L88.208,8.712 L88.208,27 L86.66,27 L86.552,24.66 C84.428,26.208 82.304,27.36 79.46,27.36 C75.5,27.36 74.024,25.128 74.024,20.988 Z M106.83,14.688 L106.83,27 L105.066,27 L105.066,14.76 C105.066,11.736 104.094,9.972 100.998,9.972 C98.37,9.972 95.49,11.7 94.302,12.816 L94.302,27 L92.538,27 L92.538,8.712 L94.086,8.712 L94.194,11.088 C96.318,9.576 98.766,8.352 101.322,8.352 C105.174,8.352 106.83,10.584 106.83,14.688 Z M119.188,24.984 L119.692,26.352 C118.828,26.964 117.064,27.432 115.768,27.432 C112.384,27.432 111.124,26.028 111.124,22.824 L111.124,10.26 L108.208,10.26 L108.208,8.712 L111.124,8.712 L111.124,3.492 L112.888,3.204 L112.888,8.712 L118.072,8.712 L118.072,10.26 L112.888,10.26 L112.888,22.464 C112.888,24.66 113.392,25.956 115.876,25.956 C116.992,25.956 118.36,25.488 119.188,24.984 Z M123.122,8.712 L123.122,27 L121.358,27 L121.358,8.712 L123.122,8.712 Z M123.986,2.628 C123.986,3.6 123.374,4.14 122.33,4.14 C121.286,4.14 120.674,3.6 120.674,2.628 C120.674,1.62 121.286,1.08 122.33,1.08 C123.374,1.08 123.986,1.62 123.986,2.628 Z M141.528,14.688 L141.528,27 L139.764,27 L139.764,14.76 C139.764,11.736 138.792,9.972 135.696,9.972 C133.068,9.972 130.188,11.7 129,12.816 L129,27 L127.236,27 L127.236,8.712 L128.784,8.712 L128.892,11.088 C131.016,9.576 133.464,8.352 136.02,8.352 C139.872,8.352 141.528,10.584 141.528,14.688 Z M159.646,8.712 L159.646,26.496 C159.646,31.788 157.774,35.028 151.834,35.028 C148.45,35.028 145.606,33.66 144.742,30.024 L146.398,29.34 C147.082,31.896 148.63,33.408 151.762,33.408 C155.182,33.408 157.954,32.364 157.954,26.712 L157.954,24.876 C156.262,26.316 154.354,27.432 151.474,27.432 C147.334,27.432 144.526,24.732 144.526,18.216 C144.526,10.98 148.126,8.352 152.338,8.352 C154.498,8.352 156.478,9.324 157.882,10.224 L158.026,8.712 L159.646,8.712 Z M157.882,23.112 L157.882,12.06 C156.91,11.376 154.966,9.864 152.194,9.864 C148.018,9.864 146.362,13.068 146.362,18.252 C146.362,23.616 148.162,25.92 151.906,25.92 C154.39,25.92 156.478,24.552 157.882,23.112 Z"></path>
        </g>
    </g>
</svg>