<?xml version="1.0" encoding="UTF-8"?>
<svg width="136px" height="36px" viewBox="0 0 136 36" version="1.1" xmlns="http://www.w3.org/2000/svg" xmlns:xlink="http://www.w3.org/1999/xlink">
    <!-- Generator: Sketch 48.2 (47327) - http://www.bohemiancoding.com/sketch -->
    <title>Enterprise</title>
    <desc>Created with Sketch.</desc>
    <defs></defs>
    <g id="Landing-Page" stroke="none" stroke-width="1" fill="none" fill-rule="evenodd">
        <g id="Enterprise" fill="#86837C">
            <path d="M2.26,14.508 L2.26,25.488 L15.148,25.488 L15.148,27 L0.532,27 L0.532,0.936 L14.86,0.936 L14.86,2.448 L2.26,2.448 L2.26,12.96 L14.032,12.96 L14.032,14.508 L2.26,14.508 Z M32.15,14.688 L32.15,27 L30.386,27 L30.386,14.76 C30.386,11.736 29.414,9.972 26.318,9.972 C23.69,9.972 20.81,11.7 19.622,12.816 L19.622,27 L17.858,27 L17.858,8.712 L19.406,8.712 L19.514,11.088 C21.638,9.576 24.086,8.352 26.642,8.352 C30.494,8.352 32.15,10.584 32.15,14.688 Z M44.508,24.984 L45.012,26.352 C44.148,26.964 42.384,27.432 41.088,27.432 C37.704,27.432 36.444,26.028 36.444,22.824 L36.444,10.26 L33.528,10.26 L33.528,8.712 L36.444,8.712 L36.444,3.492 L38.208,3.204 L38.208,8.712 L43.392,8.712 L43.392,10.26 L38.208,10.26 L38.208,22.464 C38.208,24.66 38.712,25.956 41.196,25.956 C42.312,25.956 43.68,25.488 44.508,24.984 Z M53.086,27.432 C46.786,27.432 45.022,22.932 45.022,17.856 C45.022,11.124 49.018,8.352 53.41,8.352 C58.27,8.352 60.25,11.664 60.25,15.84 C60.25,16.632 60.214,17.388 60.07,18.216 L46.894,18.216 C47.038,24.264 49.738,25.74 53.23,25.74 C56.11,25.74 57.622,24.444 58.27,21.96 L59.962,22.284 C59.062,25.992 56.254,27.432 53.086,27.432 Z M46.894,16.668 L58.414,16.668 C58.522,12.312 56.974,9.972 53.194,9.972 C50.134,9.972 47.218,11.808 46.894,16.668 Z M71.672,8.352 L71.672,10.116 C69.44,9.828 66.524,10.8 65.012,12.348 L65.012,27 L63.248,27 L63.248,8.712 L64.652,8.712 L64.832,11.16 C66.56,9.288 68.684,8.172 71.672,8.352 Z M73.014,34.632 L73.014,8.712 L74.562,8.712 L74.706,11.052 C76.182,9.792 78.486,8.352 81.474,8.352 C85.29,8.352 88.134,10.692 88.134,17.388 C88.134,24.48 84.606,27.432 80.43,27.432 C78.126,27.432 76.11,26.388 74.706,25.416 L74.706,34.632 L73.014,34.632 Z M74.778,12.78 L74.778,23.652 C75.75,24.408 77.73,25.848 80.43,25.848 C84.642,25.848 86.298,22.32 86.298,17.208 C86.298,11.844 84.678,9.828 81.15,9.828 C78.594,9.828 76.038,11.412 74.778,12.78 Z M99.7360001,8.352 L99.7360001,10.116 C97.5040001,9.828 94.5880001,10.8 93.0760001,12.348 L93.0760001,27 L91.3120001,27 L91.3120001,8.712 L92.7160001,8.712 L92.8960001,11.16 C94.6240001,9.288 96.7480001,8.172 99.7360001,8.352 Z M102.878,8.712 L102.878,27 L101.114,27 L101.114,8.712 L102.878,8.712 Z M103.742,2.628 C103.742,3.6 103.13,4.14 102.086,4.14 C101.042,4.14 100.43,3.6 100.43,2.628 C100.43,1.62 101.042,1.08 102.086,1.08 C103.13,1.08 103.742,1.62 103.742,2.628 Z M112.32,8.352 C116.748,8.352 118.08,10.548 118.368,13.824 L116.676,14.04 C116.388,11.448 115.488,9.864 112.212,9.864 C108.828,9.864 107.892,11.556 107.892,13.212 C107.892,15.84 110.052,16.38 112.788,16.956 C115.704,17.568 118.872,18.252 118.872,22.14 C118.872,25.2 116.784,27.432 112.392,27.432 C108.54,27.432 106.092,25.956 105.516,21.816 L107.208,21.492 C107.676,23.76 108.576,25.848 112.464,25.848 C115.02,25.848 117.036,24.876 117.036,22.212 C117.036,19.692 115.092,19.08 112.5,18.576 C109.476,18 106.092,17.352 106.092,13.356 C106.092,10.008 109.044,8.352 112.32,8.352 Z M128.53,27.432 C122.23,27.432 120.466,22.932 120.466,17.856 C120.466,11.124 124.462,8.352 128.854,8.352 C133.714,8.352 135.694,11.664 135.694,15.84 C135.694,16.632 135.658,17.388 135.514,18.216 L122.338,18.216 C122.482,24.264 125.182,25.74 128.674,25.74 C131.554,25.74 133.066,24.444 133.714,21.96 L135.406,22.284 C134.506,25.992 131.698,27.432 128.53,27.432 Z M122.338,16.668 L133.858,16.668 C133.966,12.312 132.418,9.972 128.638,9.972 C125.578,9.972 122.662,11.808 122.338,16.668 Z"></path>
        </g>
    </g>
</svg>