<?xml version="1.0" encoding="UTF-8"?>
<svg width="94px" height="36px" viewBox="0 0 94 36" version="1.1" xmlns="http://www.w3.org/2000/svg" xmlns:xlink="http://www.w3.org/1999/xlink">
    <!-- Generator: Sketch 48.2 (47327) - http://www.bohemiancoding.com/sketch -->
    <title>Intacct</title>
    <desc>Created with Sketch.</desc>
    <defs></defs>
    <g id="Landing-Page" stroke="none" stroke-width="1" fill="none" fill-rule="evenodd">
        <g id="Intacct" fill="#86837C">
            <path d="M2.26,0.936 L2.26,27 L0.532,27 L0.532,0.936 L2.26,0.936 Z M21.422,14.688 L21.422,27 L19.658,27 L19.658,14.76 C19.658,11.736 18.686,9.972 15.59,9.972 C12.962,9.972 10.082,11.7 8.89400001,12.816 L8.89400001,27 L7.13000001,27 L7.13000001,8.712 L8.67800001,8.712 L8.78600001,11.088 C10.91,9.576 13.358,8.352 15.914,8.352 C19.766,8.352 21.422,10.584 21.422,14.688 Z M33.78,24.984 L34.284,26.352 C33.42,26.964 31.656,27.432 30.36,27.432 C26.976,27.432 25.716,26.028 25.716,22.824 L25.716,10.26 L22.8,10.26 L22.8,8.712 L25.716,8.712 L25.716,3.492 L27.48,3.204 L27.48,8.712 L32.664,8.712 L32.664,10.26 L27.48,10.26 L27.48,22.464 C27.48,24.66 27.984,25.956 30.468,25.956 C31.584,25.956 32.952,25.488 33.78,24.984 Z M47.506,14.472 L47.506,24.408 C47.506,25.416 47.686,25.92 48.622,25.92 C48.946,25.92 49.27,25.848 49.738,25.704 L49.882,26.856 C49.162,27.216 48.694,27.288 47.938,27.288 C46.354,27.288 45.778,26.1 45.85,24.984 C44.446,26.388 42.25,27.432 39.658,27.432 C34.978,27.432 34.258,24.192 34.258,22.464 C34.258,17.244 38.974,16.344 43.222,16.344 C44.086,16.344 44.914,16.38 45.706,16.416 L45.706,14.796 C45.706,11.196 44.806,9.828 41.35,9.828 C38.29,9.828 37.102,10.98 36.706,13.248 L35.014,12.96 C35.59,9.576 37.822,8.352 41.494,8.352 C45.778,8.352 47.506,9.936 47.506,14.472 Z M45.742,23.328 L45.742,17.928 C44.914,17.856 44.05,17.82 42.934,17.82 C39.262,17.82 36.13,18.576 36.13,22.284 C36.13,24.264 36.886,25.92 39.91,25.92 C42.214,25.92 44.482,24.84 45.742,23.328 Z M58.352,27.432 C52.34,27.432 50.252,23.472 50.252,17.928 C50.252,11.484 53.42,8.352 58.748,8.352 C62.204,8.352 65.048,10.332 65.228,14.292 L63.32,14.508 C62.996,11.376 61.484,9.9 58.532,9.9 C55.472,9.9 52.088,11.628 52.088,17.676 C52.088,24.192 55.256,25.776 58.316,25.776 C61.124,25.776 63.068,24.48 63.572,21.6 L65.372,21.96 C64.688,25.884 61.556,27.432 58.352,27.432 Z M74.922,27.432 C68.91,27.432 66.822,23.472 66.822,17.928 C66.822,11.484 69.99,8.352 75.318,8.352 C78.774,8.352 81.618,10.332 81.798,14.292 L79.89,14.508 C79.566,11.376 78.054,9.9 75.102,9.9 C72.042,9.9 68.658,11.628 68.658,17.676 C68.658,24.192 71.826,25.776 74.886,25.776 C77.694,25.776 79.638,24.48 80.142,21.6 L81.942,21.96 C81.258,25.884 78.126,27.432 74.922,27.432 Z M93.1120001,24.984 L93.6160001,26.352 C92.7520001,26.964 90.9880001,27.432 89.6920001,27.432 C86.3080001,27.432 85.0480001,26.028 85.0480001,22.824 L85.0480001,10.26 L82.1320001,10.26 L82.1320001,8.712 L85.0480001,8.712 L85.0480001,3.492 L86.8120001,3.204 L86.8120001,8.712 L91.9960001,8.712 L91.9960001,10.26 L86.8120001,10.26 L86.8120001,22.464 C86.8120001,24.66 87.3160001,25.956 89.8000001,25.956 C90.9160001,25.956 92.2840001,25.488 93.1120001,24.984 Z"></path>
        </g>
    </g>
</svg>