<?xml version="1.0" encoding="UTF-8"?>
<svg width="155px" height="24px" viewBox="0 0 155 24" version="1.1" xmlns="http://www.w3.org/2000/svg" xmlns:xlink="http://www.w3.org/1999/xlink">
    <!-- Generator: Sketch 48.2 (47327) - http://www.bohemiancoding.com/sketch -->
    <title>Desktop</title>
    <desc>Created with Sketch.</desc>
    <defs></defs>
    <g id="Landing-Page" stroke="none" stroke-width="1" fill="none" fill-rule="evenodd">
        <g id="Desktop">
            <g id="Group-5" transform="translate(0.000000, -8.000000)">
                <g id="Sage" transform="translate(0.000000, 12.000000)" fill="#00DC00">
                    <path d="M45.1422304,0.0886906817 C41.146033,0.0886906817 38.5411043,2.78133978 38.5411043,7.2593323 C38.5411043,12.7909701 42.5373017,14.3714381 45.3790421,14.3714381 C48.9904205,14.3714381 51.0625229,11.9714682 51.0625229,11.9714682 L49.2272322,10.1568569 C48.250384,11.0348946 47.1255284,11.5324493 45.438245,11.5324493 C43.2181353,11.5324493 41.7084608,10.2446606 41.7084608,8.48858514 L51.6249507,8.48858514 C51.6249507,8.48858514 53.3418355,0.0886906817 45.1422304,0.0886906817 L45.1422304,0.0886906817 Z M41.7380622,6.11788322 C41.7380622,3.7471813 43.5437514,2.60573223 45.497448,2.60573223 C47.4511445,2.60573223 49.2272322,3.77644923 49.2272322,6.11788322 L41.7380622,6.11788322 L41.7380622,6.11788322 Z" id="Shape"></path>
                    <path d="M35.1073346,0.381369931 L35.1073346,1.90330203 C34.0416819,0.674049181 32.7688191,0.0594227567 31.0223328,0.0594227567 C29.9862816,0.0594227567 29.1870421,0.235030306 28.5062084,0.556977481 C27.7957733,0.90819258 27.3221499,1.2886756 26.9373309,1.69842655 C26.5229105,2.13744543 26.1972944,2.78133978 26.0196856,3.42523413 C25.8124754,4.06912848 25.7532724,5.32764925 25.7532724,7.17152852 C25.7532724,8.98613987 25.8420768,10.1861248 26.0492871,10.8300191 C26.2268958,11.4739135 26.5229105,12.0300041 26.9373309,12.4690229 C27.3221499,12.8787739 27.7661719,13.2885248 28.4470055,13.6690079 C29.1278392,14.020223 29.9862816,14.3421701 31.0223328,14.3129022 C32.7096161,14.3129022 34.1304863,13.6690079 35.1073346,12.5568267 L35.1073346,13.4055965 C35.1073346,14.4299739 34.752117,15.0738683 34.1008849,15.6006909 C33.4496527,16.1275136 32.6208117,16.4494607 31.4959562,16.4494607 C30.459905,16.4494607 29.4830567,15.8933702 28.8910275,15.5128871 L26.7893236,17.5909098 C28.1509909,18.673823 29.7790713,19.4347891 31.5551591,19.4347891 C33.4200512,19.464057 34.9297258,18.8786985 36.2321902,17.8835891 C37.5050531,16.9177475 38.2746911,15.0738683 38.2746911,13.1129173 L38.2746911,0.381369931 L35.1073346,0.381369931 L35.1073346,0.381369931 Z M35.1073346,7.23006437 C35.1073346,8.28370967 35.0777331,9.04467572 35.0185302,9.42515874 C34.9297258,9.83490969 34.7225156,10.1861248 34.4857039,10.478804 C34.2488922,10.7129474 33.9528776,10.9763588 33.5384571,11.1812342 C33.0944351,11.4153776 32.5616088,11.5324493 31.9399781,11.5324493 C30.6375138,11.5324493 29.6014626,10.7422154 29.3942523,10.508072 C29.1278392,10.2153927 28.9502304,9.86417762 28.861426,9.42515874 C28.7726216,9.01540779 28.7430201,8.28370967 28.7430201,7.23006437 C28.7430201,6.14715115 28.7726216,5.2691134 28.861426,4.85936245 C28.9206289,4.4496115 29.1278392,4.0983964 29.3646509,3.83498508 C29.6014626,3.60084168 29.8974772,3.33743035 30.3414991,3.10328695 C30.7559196,2.89841148 31.2887459,2.78133978 31.9103766,2.78133978 C32.5320074,2.78133978 33.0944351,2.86914355 33.5088556,3.10328695 C33.9528776,3.33743035 34.2192907,3.60084168 34.4561024,3.83498508 C34.7225156,4.0983964 34.9001244,4.4496115 34.9889287,4.88863037 C35.0481317,5.2691134 35.0777331,6.05934737 35.0777331,7.05445682 C35.1073346,7.08372475 35.1073346,7.17152852 35.1073346,7.23006437 L35.1073346,7.23006437 L35.1073346,7.23006437 Z" id="XMLID_88_"></path>
                    <path d="M19.1521463,0.0886906817 C15.9847898,0.0886906817 13.9422889,1.66915863 13.5574699,1.9911058 L15.4815649,3.89352093 C15.8663839,3.60084168 17.1688483,2.693536 19.1817477,2.693536 C21.6090677,2.693536 22.3195028,3.65937753 22.3195028,4.71302282 L22.3195028,6.05934737 L17.9976892,6.05934737 C16.3992103,6.05934737 13.2614552,6.46909832 13.2614552,9.92271347 C13.2614552,12.4690229 14.7415284,14.3421701 18.2641024,14.3421701 C20.0401902,14.3421701 21.372256,13.7860796 22.2899013,12.6738984 L22.2899013,14.0494909 L25.4572578,14.0494909 L25.4572578,4.88863037 C25.4572578,1.7569624 23.4739598,0.0886906817 19.1521463,0.0886906817 L19.1521463,0.0886906817 Z M22.3491042,9.10321157 C22.3491042,11.7373248 20.4546106,11.6202531 18.7377258,11.6202531 C17.020841,11.6202531 15.9255869,11.1519663 15.9255869,9.98124932 C15.9255869,8.86906817 16.8136307,8.51785307 18.6785229,8.51785307 L22.3787057,8.51785307 C22.3491042,8.48858514 22.3491042,8.95687194 22.3491042,9.10321157 L22.3491042,9.10321157 Z" id="Shape"></path>
                    <path d="M8.67322853,5.88373982 C7.40036564,5.7374002 3.72978428,5.8544719 3.72978428,4.2154681 C3.72978428,3.24962658 5.26906034,2.693536 6.68993054,2.693536 C8.96924316,2.693536 10.4493163,3.60084168 10.8933382,3.89352093 L12.7878318,2.02037373 C12.225404,1.58135485 10.1237002,0.117958607 6.68993054,0.117958607 C3.55217551,0.117958607 0.740036564,1.72769448 0.740036564,4.3325398 C0.740036564,8.31297759 5.59467642,8.31297759 7.63717734,8.51785307 C8.88043877,8.63492477 9.97569288,8.72272854 9.97569288,9.92271347 C9.97569288,11.0348946 8.25880806,11.649521 6.92674224,11.649521 C4.76583547,11.649521 3.46337112,10.9470908 2.19050823,9.80564177 L0.148007313,11.8251286 C2.01289945,13.610472 4.41061792,14.400706 6.74913346,14.400706 C10.3901134,14.400706 13.0246435,12.820238 13.0246435,9.63003422 C13.054245,7.4934757 11.6333748,6.23495492 8.67322853,5.88373982 L8.67322853,5.88373982 Z" id="Shape"></path>
                </g>
                <path d="M63.854,26 L59.415,26 L59.415,9.348 L64.245,9.348 C70.018,9.348 72.502,12.453 72.502,17.421 C72.502,22.527 69.811,26 63.854,26 Z M60.956,24.666 L63.969,24.666 C68.5,24.666 70.892,22.136 70.892,17.766 C70.892,12.269 68.316,10.682 64.107,10.682 L60.956,10.682 L60.956,24.666 Z M79.322,26.276 C75.228,26.276 74.032,23.378 74.032,20.135 C74.032,15.834 76.516,14.017 79.483,14.017 C82.703,14.017 84.014,16.202 84.014,19.008 C83.991,19.468 83.968,19.951 83.899,20.434 L75.665,20.434 C75.757,23.953 77.39,24.896 79.437,24.896 C81.277,24.896 82.036,24.137 82.404,22.665 L83.853,22.941 C83.347,25.264 81.484,26.276 79.322,26.276 Z M75.688,19.192 L82.404,19.192 C82.45,16.777 81.53,15.351 79.345,15.351 C77.551,15.351 75.803,16.455 75.688,19.192 Z M90.857,26 L89.132,26 L84.509,14.247 L86.188,14.247 L90.029,24.482 L93.824,14.247 L95.365,14.247 L90.857,26 Z M100.92,26.276 C96.826,26.276 95.63,23.378 95.63,20.135 C95.63,15.834 98.114,14.017 101.081,14.017 C104.301,14.017 105.612,16.202 105.612,19.008 C105.589,19.468 105.566,19.951 105.497,20.434 L97.263,20.434 C97.355,23.953 98.988,24.896 101.035,24.896 C102.875,24.896 103.634,24.137 104.002,22.665 L105.451,22.941 C104.945,25.264 103.082,26.276 100.92,26.276 Z M97.286,19.192 L104.002,19.192 C104.048,16.777 103.128,15.351 100.943,15.351 C99.149,15.351 97.401,16.455 97.286,19.192 Z M109.534,8.635 L109.534,26 L107.993,26 L107.993,8.635 L109.534,8.635 Z M117.044,26.276 C113.065,26.276 111.754,23.631 111.754,20.181 C111.754,16.363 113.732,14.017 117.343,14.017 C120.931,14.017 122.426,16.386 122.426,19.882 C122.426,23.746 120.885,26.276 117.044,26.276 Z M117.159,24.965 C119.413,24.965 120.816,23.585 120.816,20.02 C120.816,16.524 119.505,15.351 117.251,15.351 C114.928,15.351 113.341,16.777 113.341,20.089 C113.341,23.378 114.606,24.965 117.159,24.965 Z M124.761,30.876 L124.761,14.247 L126.118,14.247 L126.21,15.673 C127.291,14.776 128.625,14.017 130.442,14.017 C132.903,14.017 134.697,15.535 134.697,19.836 C134.697,24.413 132.397,26.276 129.729,26.276 C128.349,26.276 127.13,25.632 126.256,24.988 L126.256,30.876 L124.761,30.876 Z M126.302,17.03 L126.302,23.562 C126.877,23.999 128.165,24.965 129.729,24.965 C132.236,24.965 133.133,22.826 133.133,19.767 C133.133,16.547 132.144,15.282 130.051,15.282 C128.556,15.282 127.061,16.248 126.302,17.03 Z M141.517,26.276 C137.423,26.276 136.227,23.378 136.227,20.135 C136.227,15.834 138.711,14.017 141.678,14.017 C144.898,14.017 146.209,16.202 146.209,19.008 C146.186,19.468 146.163,19.951 146.094,20.434 L137.86,20.434 C137.952,23.953 139.585,24.896 141.632,24.896 C143.472,24.896 144.231,24.137 144.599,22.665 L146.048,22.941 C145.542,25.264 143.679,26.276 141.517,26.276 Z M137.883,19.192 L144.599,19.192 C144.645,16.777 143.725,15.351 141.54,15.351 C139.746,15.351 137.998,16.455 137.883,19.192 Z M154.363,14.017 L154.363,15.627 C152.914,15.374 151.097,16.041 150.131,16.984 L150.131,26 L148.59,26 L148.59,14.247 L149.855,14.247 L149.993,15.88 C151.12,14.362 152.385,13.994 153.995,14.017 L154.363,14.017 Z" id="Developer" fill="#FFFFFF"></path>
            </g>
        </g>
    </g>
</svg>